<?xml version="1.0" encoding="utf-8"?><svg width="416" height="24" viewBox="0 0 416 24" xmlns="http://www.w3.org/2000/svg" xmlns:xlink="http://www.w3.org/1999/xlink"><svg viewBox="-2 -2 56 8" width="56" height="8" id="animated-overlay" xmlns="http://www.w3.org/2000/svg"><circle fill="#4BAA02" cx="50" cy="2" r="2"/><circle fill="#4BAA02" cx="38" cy="2" r="2"/><circle fill="#4BAA02" cx="26" cy="2" r="2"/><circle fill="#4BAA02" cx="14" cy="2" r="2"/><circle fill="#4BAA02" cx="2" cy="2" r="2"/></svg><svg viewBox="-2 -2 24 24" width="24" height="24" id="cbsingle_dis_selected" x="56" xmlns="http://www.w3.org/2000/svg"><path fill="#B1B0B1" d="M0 0h20v20H0z"/><path fill="#FFF" d="M18 4.94L7.48 16 2 10.23l.89-.93 4.6 4.82 9.63-10.11.88.93z"/></svg><svg viewBox="-3 1 24 24" width="24" height="24" id="cbsingle_hover_selected" x="80" xmlns="http://www.w3.org/2000/svg"><path fill="#4BAA02" d="M-1 3h20v20H-1z"/><path fill="#FFF" d="M17 7.94L6.48 19 1 13.23l.89-.93 4.6 4.82 9.63-10.11.88.93z"/></svg><svg opacity=".8" viewBox="-3 1 24 24" width="24" height="24" id="cbsingle_hover_unselected" x="104" xmlns="http://www.w3.org/2000/svg"><path fill="#FFF" d="M0 4h18v18H0z"/><path fill="#4BAA02" d="M17 5v16H1V5h16m2-2H-1v20h20V3z"/></svg><svg id="checkbox_dis_selected" viewBox="-37 5 24 24" width="24" height="24" x="128" xmlns="http://www.w3.org/2000/svg"><style>.est0{opacity:.5;fill:#4baa02}.est1{fill:#fff}</style><path class="est0" d="M-35 7h20v20h-20z" id="eDisabled_Checkbox"/><path id="eCheckmark" class="est1" d="M-17 11.94L-27.52 23-33 17.23l.89-.93 4.6 4.82 9.63-10.11.88.93z"/></svg><svg viewBox="-2 -2 24 24" width="24" height="24" id="checkbox_dis_unselected" x="152" xmlns="http://www.w3.org/2000/svg"><path opacity=".8" fill="#FFF" d="M1 1h18v18H1z"/><path fill="#B0B0B0" d="M18 2v16H2V2h16m2-2H0v20h20V0z"/></svg><svg viewBox="-2 -2 24 24" width="24" height="24" id="checkbox_ena_selected" x="176" xmlns="http://www.w3.org/2000/svg"><path fill="#4BAA02" d="M0 0h20v20H0z"/><path fill="#FFF" d="M18 4.94L7.48 16 2 10.23l.89-.93 4.6 4.82 9.63-10.11.88.93z"/></svg><svg viewBox="-2 -2 24 24" width="24" height="24" id="checkbox_ena_unselected" x="200" xmlns="http://www.w3.org/2000/svg"><path fill="#FFF" d="M1 1h18v18H1z"/><path fill="#3C3C3C" d="M18 2v16H2V2h16m2-2H0v20h20V0z"/></svg><svg viewBox="-3 1 24 24" width="24" height="24" id="checkbox_pressed_selected" x="224" xmlns="http://www.w3.org/2000/svg"><path opacity=".15" fill="#4BAA02" d="M0 4h18v18H0z"/><path fill="#4BAA02" d="M17 5v16H1V5h16m2-2H-1v20h20V3z"/><path fill="#4BAA02" d="M17 7.94L6.48 19 1 13.23l.89-.93 4.6 4.82 9.63-10.11.88.93z"/></svg><svg viewBox="-3 1 24 24" width="24" height="24" id="checkbox_pressed_unselected" x="248" xmlns="http://www.w3.org/2000/svg"><path opacity=".15" fill="#4BAA02" d="M0 4h18v18H0z"/><path fill="#4BAA02" d="M17 5v16H1V5h16m2-2H-1v20h20V3z"/></svg><svg opacity=".5" viewBox="-2 -2 24 24" width="24" height="24" id="radio_dis_selected" x="272" xmlns="http://www.w3.org/2000/svg"><style>.kst0{fill:#fff}.kst1,.kst2{fill:#4baa02}</style><path class="kst0" d="M10 0c5.5 0 10 4.5 10 10s-4.5 10-10 10S0 15.5 0 10 4.5 0 10 0z"/><path class="kst1" d="M20 10c0 5.5-4.5 10-10 10S0 15.5 0 10 4.5 0 10 0s10 4.5 10 10zM10 2c-4.4 0-8 3.6-8 8s3.6 8 8 8 8-3.6 8-8-3.6-8-8-8z"/><circle id="kinner_ellipse" class="kst2" cx="10" cy="10.1" r="5"/></svg><svg opacity=".5" viewBox="-37 5 24 24" width="24" height="24" id="radio_dis_unselected" x="296" xmlns="http://www.w3.org/2000/svg"><style>.lst0{fill:#fff}.lst1{fill:#3c3c3c}</style><path class="lst0" d="M-25 7c5.5 0 10 4.5 10 10s-4.5 10-10 10-10-4.5-10-10 4.5-10 10-10z"/><path class="lst1" d="M-15 17c0 5.5-4.5 10-10 10s-10-4.5-10-10 4.5-10 10-10 10 4.5 10 10zm-10-8c-4.4 0-8 3.6-8 8s3.6 8 8 8 8-3.6 8-8-3.6-8-8-8z"/></svg><svg viewBox="-2 -2 24 24" width="24" height="24" id="radio_ena_selected" x="320" xmlns="http://www.w3.org/2000/svg"><path opacity=".8" fill="#FFF" d="M10 19c-4.96 0-9-4.04-9-9s4.04-9 9-9 9 4.04 9 9-4.04 9-9 9z"/><path fill="#4BAA02" d="M10 2c4.41 0 8 3.59 8 8s-3.59 8-8 8-8-3.59-8-8 3.59-8 8-8m0-2C4.48 0 0 4.48 0 10s4.48 10 10 10 10-4.48 10-10S15.52 0 10 0z"/><circle fill="#4BAA02" cx="9.96" cy="10.04" r="5"/></svg><svg viewBox="-2 -2 24 24" width="24" height="24" id="radio_ena_unselected" x="344" xmlns="http://www.w3.org/2000/svg"><g opacity=".8"><path fill="#FFF" d="M10 19c-4.96 0-9-4.04-9-9s4.04-9 9-9 9 4.04 9 9-4.04 9-9 9z"/><path d="M10 2c4.41 0 8 3.59 8 8s-3.59 8-8 8-8-3.59-8-8 3.59-8 8-8m0-2C4.48 0 0 4.48 0 10s4.48 10 10 10 10-4.48 10-10S15.52 0 10 0z"/></g></svg><svg viewBox="-2 -2 24 24" width="24" height="24" id="radio_pressed_selected" x="368" xmlns="http://www.w3.org/2000/svg"><path fill="#4BAA02" d="M10 20C4.49 20 0 15.51 0 10S4.49 0 10 0s10 4.49 10 10-4.49 10-10 10z" opacity=".15"/><path fill="#4BAA02" d="M10 2c4.41 0 8 3.59 8 8s-3.59 8-8 8-8-3.59-8-8 3.59-8 8-8m0-2C4.48 0 0 4.48 0 10s4.48 10 10 10 10-4.48 10-10S15.52 0 10 0z"/><circle fill="#4BAA02" cx="9.96" cy="10.04" r="5"/></svg><svg viewBox="-2 -2 24 24" width="24" height="24" id="radio_pressed_unselected" x="392" xmlns="http://www.w3.org/2000/svg"><path fill="#4BAA02" d="M10 20C4.49 20 0 15.51 0 10S4.49 0 10 0s10 4.49 10 10-4.49 10-10 10z" opacity=".15"/><path fill="#4BAA02" d="M10 2c4.41 0 8 3.59 8 8s-3.59 8-8 8-8-3.59-8-8 3.59-8 8-8m0-2C4.48 0 0 4.48 0 10s4.48 10 10 10 10-4.48 10-10S15.52 0 10 0z"/></svg></svg>