<?xml version="1.0" encoding="utf-8"?><svg width="728" height="52" viewBox="0 0 728 52" xmlns="http://www.w3.org/2000/svg" xmlns:xlink="http://www.w3.org/1999/xlink"><svg viewBox="10 -14 52 52" width="52" height="52" id="cbsingle_hover_selected" xmlns="http://www.w3.org/2000/svg"><path fill="#F2552C" d="M43.03 3h-14c-1.1 0-2 .9-2 2v14c0 1.1.9 2 2 2h14c1.1 0 2-.9 2-2V5c0-1.1-.9-2-2-2z"/><path fill="#FFF" d="M41.88 10.21l-7.78 5.82-.07-.05-.07.05-3.78-2.76c-.2-.15-.2-.39-.01-.54l.69-.53c.19-.15.51-.15.71-.01l2.45 1.79 6.48-4.85c.2-.15.51-.14.71.01l.68.53c.19.16.18.4-.01.54z"/></svg><svg viewBox="-2 -2 52 52" width="52" height="52" id="cbsingle_hover_unselected" x="52" xmlns="http://www.w3.org/2000/svg"><path fill="#6D6D6D" d="M31 15H17c-1.1 0-2 .9-2 2v14c0 1.1.9 2 2 2h14c1.1 0 2-.9 2-2V17a2 2 0 0 0-2-2zm0 16H17V17h14v14z"/></svg><svg viewBox="-2 -2 52 52" width="52" height="52" id="checkbox_dis_selected" x="104" xmlns="http://www.w3.org/2000/svg"><path fill-rule="evenodd" clip-rule="evenodd" fill="#B1B0B1" d="M31.03 15h-14c-1.1 0-2 .9-2 2v14c0 1.1.9 2 2 2h14c1.1 0 2-.9 2-2V17c0-1.1-.9-2-2-2z"/><path fill-rule="evenodd" clip-rule="evenodd" fill="#FFF" d="M29.88 22.21l-7.78 5.82-.07-.05-.07.05-3.78-2.76c-.2-.15-.2-.39-.01-.54l.69-.53c.19-.15.51-.15.71-.01l2.45 1.79 6.48-4.85c.2-.15.51-.14.71.01l.68.53c.19.16.18.4-.01.54z"/></svg><svg viewBox="-2 -2 52 52" width="52" height="52" id="checkbox_dis_unselected" x="156" xmlns="http://www.w3.org/2000/svg"><path fill="#B0B0B0" d="M31 15H17c-1.1 0-2 .9-2 2v14c0 1.1.9 2 2 2h14c1.1 0 2-.9 2-2V17a2 2 0 0 0-2-2zm0 16H17V17h14v14z"/></svg><svg viewBox="-2 -2 52 52" width="52" height="52" id="checkbox_ena_selected" x="208" xmlns="http://www.w3.org/2000/svg"><path fill-rule="evenodd" clip-rule="evenodd" fill="#F2552C" d="M31.03 15h-14c-1.1 0-2 .9-2 2v14c0 1.1.9 2 2 2h14c1.1 0 2-.9 2-2V17c0-1.1-.9-2-2-2z"/><path fill-rule="evenodd" clip-rule="evenodd" fill="#FFF" d="M29.88 22.21l-7.78 5.82-.07-.05-.07.05-3.78-2.76c-.2-.15-.2-.39-.01-.54l.69-.53c.19-.15.51-.15.71-.01l2.45 1.79 6.48-4.85c.2-.15.51-.14.71.01l.68.53c.19.16.18.4-.01.54z"/></svg><svg viewBox="-2 -2 52 52" width="52" height="52" id="checkbox_ena_unselected" x="260" xmlns="http://www.w3.org/2000/svg"><path fill="#6D6D6D" d="M31 15H17c-1.1 0-2 .9-2 2v14c0 1.1.9 2 2 2h14c1.1 0 2-.9 2-2V17a2 2 0 0 0-2-2zm0 16H17V17h14v14z"/></svg><svg viewBox="-2 -2 52 52" width="52" height="52" id="checkbox_pressed_selected" x="312" xmlns="http://www.w3.org/2000/svg"><circle fill-rule="evenodd" clip-rule="evenodd" fill="#f2ac2c" cx="24" cy="24" r="24"/><path fill-rule="evenodd" clip-rule="evenodd" fill="#F2552C" d="M31.03 15h-14c-1.1 0-2 .9-2 2v14c0 1.1.9 2 2 2h14c1.1 0 2-.9 2-2V17c0-1.1-.9-2-2-2z"/><path fill-rule="evenodd" clip-rule="evenodd" fill="#FFF" d="M29.88 22.21l-7.78 5.82-.07-.05-.07.05-3.78-2.76c-.2-.15-.2-.39-.01-.54l.69-.53c.19-.15.51-.15.71-.01l2.45 1.79 6.48-4.85c.2-.15.51-.14.71.01l.68.53c.19.16.18.4-.01.54z"/></svg><svg viewBox="-2 -2 52 52" width="52" height="52" id="checkbox_pressed_unselected" x="364" xmlns="http://www.w3.org/2000/svg"><circle fill="#C4C4C5" cx="24" cy="24" r="24"/><path fill="#6D6D6D" d="M31 15H17c-1.1 0-2 .9-2 2v14c0 1.1.9 2 2 2h14c1.1 0 2-.9 2-2V17a2 2 0 0 0-2-2zm0 16H17V17h14v14z"/></svg><svg viewBox="-23.5 -7.5 52 52" width="52" height="52" id="radio_dis_selected" x="416" xmlns="http://www.w3.org/2000/svg"><path fill="#B0B0B0" d="M12.5 18.438c0 5.52-4.48 10-10 10s-10-4.48-10-10 4.48-10 10-10 10 4.48 10 10zm-10.03-7.94c-4.4 0-7.97 3.581-7.97 8s3.57 8 7.97 8 7.969-3.58 7.969-8-3.569-8-7.969-8z"/><circle fill="#B0B0B0" cx="2.5" cy="18.498" r="5"/></svg><svg viewBox="-23.5 -7.5 52 52" width="52" height="52" id="radio_dis_unselected" x="468" xmlns="http://www.w3.org/2000/svg"><path fill="#B0B0B0" d="M12.584 18.5c0 5.52-4.481 10-10 10-5.52 0-10-4.48-10-10s4.48-10 10-10c5.519 0 10 4.48 10 10zm-10.03-7.939c-4.4 0-7.97 3.58-7.97 8s3.57 8 7.97 8 7.97-3.58 7.97-8-3.57-8-7.97-8z"/></svg><svg viewBox="-23.5 -7.5 52 52" width="52" height="52" id="radio_ena_selected" x="520" xmlns="http://www.w3.org/2000/svg"><path fill="#F2552C" d="M12.5 18.542c0 5.52-4.48 10-10 10s-10-4.48-10-10c0-5.521 4.48-10 10-10s10 4.479 10 10zm-10.03-7.94c-4.4 0-7.97 3.58-7.97 8 0 4.421 3.57 8.001 7.97 8.001s7.969-3.58 7.969-8.001c0-4.42-3.569-8-7.969-8z"/><circle fill="#F2552C" cx="2.5" cy="18.602" r="5"/></svg><svg viewBox="-23.5 -7.5 52 52" width="52" height="52" id="radio_ena_unselected" x="572" xmlns="http://www.w3.org/2000/svg"><path fill="#6D6D6D" d="M12.479 18.479c0 5.52-4.48 10-10 10s-10-4.48-10-10 4.48-10 10-10 10 4.481 10 10zM2.45 10.54c-4.4 0-7.97 3.58-7.97 8s3.57 8 7.97 8 7.969-3.58 7.969-8-3.569-8-7.969-8z"/></svg><svg viewBox="-9.5 6.5 52 52" width="52" height="52" id="radio_pressed_selected" x="624" xmlns="http://www.w3.org/2000/svg"><circle opacity=".6" fill="#f2ac2c" cx="16.5" cy="32.5" r="24"/><path fill="#F2552C" d="M26.5 32.5c0 5.52-4.48 10-10 10s-10-4.48-10-10 4.48-10 10-10 10 4.48 10 10zm-10.03-7.939c-4.4 0-7.97 3.58-7.97 8s3.57 8 7.97 8 7.969-3.58 7.969-8-3.569-8-7.969-8z"/><circle fill="#F2552C" cx="16.5" cy="32.561" r="5"/></svg><svg viewBox="-9.5 6.5 52 52" width="52" height="52" id="radio_pressed_unselected" x="676" xmlns="http://www.w3.org/2000/svg"><circle opacity=".6" fill="#C4C4C5" cx="16.5" cy="32.5" r="24"/><path fill="#B0B0B0" d="M26.5 32.5c0 5.52-4.48 10-10 10s-10-4.48-10-10 4.48-10 10-10 10 4.48 10 10zm-10.03-7.939c-4.4 0-7.97 3.58-7.97 8s3.57 8 7.97 8 7.969-3.58 7.969-8-3.569-8-7.969-8z"/></svg></svg>