<?xml version="1.0" encoding="utf-8"?><svg width="312" height="24" viewBox="0 0 312 24" xmlns="http://www.w3.org/2000/svg" xmlns:xlink="http://www.w3.org/1999/xlink"><svg viewBox="-2 -2 24 24" width="24" height="24" id="cbsingle_dis_selected" xmlns="http://www.w3.org/2000/svg"><path fill="#B1B0B1" d="M0 0h20v20H0z"/><path fill="#FFF" d="M18 4.94L7.48 16 2 10.23l.89-.93 4.6 4.82 9.63-10.11.88.93z"/></svg><svg viewBox="-3 1 24 24" width="24" height="24" id="cbsingle_hover_selected" x="24" xmlns="http://www.w3.org/2000/svg"><path fill="#fccb83" d="M-1 3h20v20H-1z"/><path fill="#FFF" d="M17 7.94L6.48 19 1 13.23l.89-.93 4.6 4.82 9.63-10.11.88.93z"/></svg><svg opacity=".8" viewBox="-3 1 24 24" width="24" height="24" id="cbsingle_hover_unselected" x="48" xmlns="http://www.w3.org/2000/svg"><path fill="#FFF" d="M0 4h18v18H0z"/><path fill="#F2552C" d="M17 5v16H1V5h16m2-2H-1v20h20V3z"/></svg><svg id="checkbox_dis_selected" viewBox="-2 -2 20 20" width="20" height="20" x="72" xmlns="http://www.w3.org/2000/svg"><style>.dst0{fill:#fff}.dst1,.dst2{fill:#d4d6d7}.dst2{fill-rule:evenodd;clip-rule:evenodd}</style><path class="dst0" d="M2 15.5c-.8 0-1.5-.7-1.5-1.5V2C.5 1.2 1.2.5 2 .5h12c.8 0 1.5.7 1.5 1.5v12c0 .8-.7 1.5-1.5 1.5H2z"/><path class="dst1" d="M14 1c.6 0 1 .4 1 1v12c0 .6-.4 1-1 1H2c-.6 0-1-.4-1-1V2c0-.6.4-1 1-1h12m0-1H2C.9 0 0 .9 0 2v12c0 1.1.9 2 2 2h12c1.1 0 2-.9 2-2V2c0-1.1-.9-2-2-2z"/><path class="dst2" d="M13.8 4.9l-6.9 7.6c-.3.3-.7.3-1 0l-3.7-4c-.3-.3-.3-.7 0-1l.6-.7c.3-.3.7-.3 1 0l2.5 2.7 5.9-6.3c.3-.3.7-.3 1 0l.6.7c.3.3.3.7 0 1z"/></svg><svg id="checkbox_dis_unselected" viewBox="-10 6 20 20" width="20" height="20" x="92" xmlns="http://www.w3.org/2000/svg"><style>.est0{fill:#d4d6d7}</style><path class="est0" d="M6 9c.6 0 1 .4 1 1v12c0 .6-.4 1-1 1H-6c-.6 0-1-.4-1-1V10c0-.6.4-1 1-1H6m0-1H-6c-1.1 0-2 .9-2 2v12c0 1.1.9 2 2 2H6c1.1 0 2-.9 2-2V10c0-1.1-.9-2-2-2z"/></svg><svg id="checkbox_ena_selected" viewBox="-10 6 20 20" width="20" height="20" x="112" xmlns="http://www.w3.org/2000/svg"><style>.fst0{fill:#fcfdfe}.fst1{fill:#b2bcc4}.fst2{fill-rule:evenodd;clip-rule:evenodd;fill:#fccb83}</style><path class="fst0" d="M-6 23.5c-.8 0-1.5-.7-1.5-1.5V10c0-.8.7-1.5 1.5-1.5H6c.8 0 1.5.7 1.5 1.5v12c0 .8-.7 1.5-1.5 1.5H-6z"/><path class="fst1" d="M6 9c.6 0 1 .4 1 1v12c0 .6-.4 1-1 1H-6c-.6 0-1-.4-1-1V10c0-.6.4-1 1-1H6m0-1H-6c-1.1 0-2 .9-2 2v12c0 1.1.9 2 2 2H6c1.1 0 2-.9 2-2V10c0-1.1-.9-2-2-2z"/><path class="fst2" d="M5.8 13.2l-6.9 7.6c-.3.3-.7.3-1 0l-3.7-4c-.3-.3-.3-.7 0-1l.6-.7c.3-.3.7-.3 1 0l2.5 2.7 5.9-6.3c.3-.3.7-.3 1 0l.6.7c.3.2.3.7 0 1z"/></svg><svg id="checkbox_ena_unselected" viewBox="-10 6 20 20" width="20" height="20" x="132" xmlns="http://www.w3.org/2000/svg"><style>.gst0{fill:#fcfdfe}.gst1{fill:#b2bcc4}</style><path class="gst0" d="M-6 23.5c-.8 0-1.5-.7-1.5-1.5V10c0-.8.7-1.5 1.5-1.5H6c.8 0 1.5.7 1.5 1.5v12c0 .8-.7 1.5-1.5 1.5H-6z"/><path class="gst1" d="M6 9c.6 0 1 .4 1 1v12c0 .6-.4 1-1 1H-6c-.6 0-1-.4-1-1V10c0-.6.4-1 1-1H6m0-1H-6c-1.1 0-2 .9-2 2v12c0 1.1.9 2 2 2H6c1.1 0 2-.9 2-2V10c0-1.1-.9-2-2-2z"/></svg><svg id="checkbox_pressed_selected" viewBox="-10 6 20 20" width="20" height="20" x="152" xmlns="http://www.w3.org/2000/svg"><style>.hst0{fill:#e4e8ea}.hst1{fill:#9ba4ab}.hst2{fill:#fccb83}</style><path class="hst0" d="M-6 23.5c-.8 0-1.5-.7-1.5-1.5V10c0-.8.7-1.5 1.5-1.5H6c.8 0 1.5.7 1.5 1.5v12c0 .8-.7 1.5-1.5 1.5H-6z"/><path class="hst1" d="M6 9c.6 0 1 .4 1 1v12c0 .6-.4 1-1 1H-6c-.6 0-1-.4-1-1V10c0-.6.4-1 1-1H6m0-1H-6c-1.1 0-2 .9-2 2v12c0 1.1.9 2 2 2H6c1.1 0 2-.9 2-2V10c0-1.1-.9-2-2-2z"/><path class="hst2" d="M5.8 13.2l-6.9 7.6c-.3.3-.7.3-1 0l-3.7-4c-.3-.3-.3-.7 0-1l.6-.7c.3-.3.7-.3 1 0l2.5 2.7 5.9-6.3c.3-.3.7-.3 1 0l.6.7c.3.2.3.7 0 1z"/></svg><svg id="checkbox_pressed_unselected" viewBox="-10 6 20 20" width="20" height="20" x="172" xmlns="http://www.w3.org/2000/svg"><style>.ist0{fill:#e4e8ea}.ist1{fill:#9ba4ab}</style><path class="ist0" d="M-6 23.5c-.8 0-1.5-.7-1.5-1.5V10c0-.8.7-1.5 1.5-1.5H6c.8 0 1.5.7 1.5 1.5v12c0 .8-.7 1.5-1.5 1.5H-6z"/><path class="ist1" d="M6 9c.6 0 1 .4 1 1v12c0 .6-.4 1-1 1H-6c-.6 0-1-.4-1-1V10c0-.6.4-1 1-1H6m0-1H-6c-1.1 0-2 .9-2 2v12c0 1.1.9 2 2 2H6c1.1 0 2-.9 2-2V10c0-1.1-.9-2-2-2z"/></svg><svg viewBox="-2 -2 20 20" width="20" height="20" id="radio_dis_selected" x="192" xmlns="http://www.w3.org/2000/svg"><defs><style>.jcls-1,.jcls-2{fill:#d4d6d7}.jcls-1{fill-rule:evenodd}.jcls-3{fill:none;stroke:#e0e6eb;stroke-width:1px}</style></defs><path id="jEllipse_4_copy_2" data-name="Ellipse 4 copy 2" class="jcls-1" d="M8 0a8 8 0 1 1-8 8 8 8 0 0 1 8-8zm0 1a7 7 0 1 1-7 7 7 7 0 0 1 7-7z"/><circle id="jEllipse_1_copy_7" data-name="Ellipse 1 copy 7" class="jcls-2" cx="8" cy="8" r="4"/><circle class="jcls-3" cx="27" cy="15" r="8"/></svg><svg viewBox="-2 -2 20 20" width="20" height="20" id="radio_dis_unselected" x="212" xmlns="http://www.w3.org/2000/svg"><defs><style>.kcls-1{fill:#d4d6d7;fill-rule:evenodd}.kcls-2{fill:none;stroke:#e0e6eb;stroke-width:1px}</style></defs><path id="kEllipse_4_copy_2" data-name="Ellipse 4 copy 2" class="kcls-1" d="M8 0a8 8 0 1 1-8 8 8 8 0 0 1 8-8zm0 1a7 7 0 1 1-7 7 7 7 0 0 1 7-7z"/><circle class="kcls-2" cx="27" cy="15" r="8"/></svg><svg viewBox="-2 -2 20 20" width="20" height="20" id="radio_ena_selected" x="232" xmlns="http://www.w3.org/2000/svg"><defs><style>.lcls-1{fill:#b2bcc4}.lcls-2{fill:#fff}.lcls-3,.lcls-4{fill:#fccb83;stroke:#fccb83;stroke-width:1px}.lcls-4{fill:none;stroke:#e0e6eb}</style></defs><circle class="lcls-1" cx="8" cy="8" r="8"/><circle class="lcls-2" cx="8" cy="8" r="7"/><circle id="lEllipse_1_copy_2" data-name="Ellipse 1 copy 2" class="lcls-3" cx="8" cy="8" r="4"/><circle class="lcls-4" cx="27" cy="15" r="8"/></svg><svg viewBox="-2 -2 20 20" width="20" height="20" id="radio_ena_unselected" x="252" xmlns="http://www.w3.org/2000/svg"><defs><style>.mcls-1{fill:#b2bcc4}.mcls-2{fill:#fff}.mcls-3{fill:none;stroke:#e0e6eb;stroke-width:1px}</style></defs><circle class="mcls-1" cx="8" cy="8" r="8"/><circle class="mcls-2" cx="8" cy="8" r="7"/><circle class="mcls-3" cx="27" cy="15" r="8"/></svg><svg viewBox="-2 -2 20 20" width="20" height="20" id="radio_pressed_selected" x="272" xmlns="http://www.w3.org/2000/svg"><defs><style>.ncls-1{fill:#9ba4ab}.ncls-2{fill:#e4e8ea}.ncls-3,.ncls-4{fill:#fccb83;stroke:#fccb83;stroke-width:1px}.ncls-4{fill:none;stroke:#e0e6eb}</style></defs><circle id="nEllipse_4_copy" data-name="Ellipse 4 copy" class="ncls-1" cx="8" cy="8" r="8"/><circle id="nEllipse_5_copy" data-name="Ellipse 5 copy" class="ncls-2" cx="8" cy="8" r="7"/><circle id="nEllipse_1_copy_3" data-name="Ellipse 1 copy 3" class="ncls-3" cx="8" cy="8" r="4"/><circle class="ncls-4" cx="27" cy="15" r="8"/></svg><svg viewBox="-2 -2 20 20" width="20" height="20" id="radio_pressed_unselected" x="292" xmlns="http://www.w3.org/2000/svg"><defs><style>.ocls-1{fill:#9ba4ab}.ocls-2{fill:#e4e8ea}.ocls-3{fill:none;stroke:#e0e6eb;stroke-width:1px}</style></defs><circle id="oEllipse_4_copy" data-name="Ellipse 4 copy" class="ocls-1" cx="8" cy="8" r="8"/><circle id="oEllipse_5_copy" data-name="Ellipse 5 copy" class="ocls-2" cx="8" cy="8" r="7"/><circle class="ocls-3" cx="27" cy="15" r="8"/></svg></svg>