<?xml version="1.0" encoding="utf-8"?><svg width="496" height="44" viewBox="0 0 496 44" xmlns="http://www.w3.org/2000/svg" xmlns:xlink="http://www.w3.org/1999/xlink"><svg viewBox="-2 -2 56 8" width="56" height="8" id="animated-overlay" xmlns="http://www.w3.org/2000/svg"><circle fill="#888" cx="50" cy="2" r="2"/><circle fill="#888" cx="38" cy="2" r="2"/><circle fill="#888" cx="26" cy="2" r="2"/><circle fill="#888" cx="14" cy="2" r="2"/><circle fill="#888" cx="2" cy="2" r="2"/></svg><svg viewBox="-2 -2 44 44" width="44" height="44" id="spinner_00" x="56" xmlns="http://www.w3.org/2000/svg"/><svg viewBox="-2 -2 44 44" width="44" height="44" id="spinner_10" x="100" xmlns="http://www.w3.org/2000/svg"/><svg viewBox="-2 -2 44 44" width="44" height="44" id="spinner_20" x="144" xmlns="http://www.w3.org/2000/svg"><circle fill-rule="evenodd" clip-rule="evenodd" fill="#858585" cx="20.01" cy="3.01" r="3.01"/></svg><svg viewBox="-2 -2 44 44" width="44" height="44" id="spinner_30" x="188" xmlns="http://www.w3.org/2000/svg"><path fill-rule="evenodd" clip-rule="evenodd" fill="#858585" d="M20.01 0C18.35 0 17 1.35 17 3.01c0 1.66 1.35 3.01 3.02 3.01s3.02-1.35 3.02-3.01A3.03 3.03 0 0 0 20.01 0zm12 5.05c-1.66 0-3 1.34-3 3s1.34 3 3 3 3-1.34 3-3c0-1.65-1.35-3-3-3z"/></svg><svg viewBox="-2 -2 44 44" width="44" height="44" id="spinner_40" x="232" xmlns="http://www.w3.org/2000/svg"><path fill-rule="evenodd" clip-rule="evenodd" fill="#858585" d="M20.01 0C18.35 0 17 1.35 17 3.01c0 1.66 1.35 3.01 3.02 3.01s3.02-1.35 3.02-3.01A3.03 3.03 0 0 0 20.01 0zm17 17.01a2.99 2.99 0 0 0-2.99 2.98c0 1.65 1.34 2.98 2.99 2.98A2.99 2.99 0 0 0 40 19.99a2.99 2.99 0 0 0-2.99-2.98zm-2-8.96c0-1.66-1.35-3-3-3-1.66 0-3 1.34-3 3s1.34 3 3 3c1.65 0 3-1.34 3-3z"/></svg><svg viewBox="-2 -2 44 44" width="44" height="44" id="spinner_50" x="276" xmlns="http://www.w3.org/2000/svg"><path fill-rule="evenodd" clip-rule="evenodd" fill="#858585" d="M20.01 0C18.35 0 17 1.35 17 3.01c0 1.66 1.35 3.01 3.02 3.01s3.02-1.35 3.02-3.01A3.03 3.03 0 0 0 20.01 0zm17 17.01a2.99 2.99 0 0 0-2.99 2.98c0 1.65 1.34 2.98 2.99 2.98A2.99 2.99 0 0 0 40 19.99a2.99 2.99 0 0 0-2.99-2.98zm-5-5.96c1.66 0 3-1.34 3-3s-1.35-3-3-3c-1.66 0-3 1.34-3 3a2.99 2.99 0 0 0 3 3zM32 28.99c-1.66 0-3.01 1.35-3.01 3.01s1.35 3.01 3.01 3.01 3.01-1.35 3.01-3.01-1.35-3.01-3.01-3.01z"/></svg><svg viewBox="-2 -2 44 44" width="44" height="44" id="spinner_60" x="320" xmlns="http://www.w3.org/2000/svg"><path fill-rule="evenodd" clip-rule="evenodd" fill="#858585" d="M20.01 0C18.35 0 17 1.35 17 3.01c0 1.66 1.35 3.01 3.02 3.01s3.02-1.35 3.02-3.01A3.03 3.03 0 0 0 20.01 0zm17 17.01a2.99 2.99 0 0 0-2.99 2.98c0 1.65 1.34 2.98 2.99 2.98A2.99 2.99 0 0 0 40 19.99a2.99 2.99 0 0 0-2.99-2.98zM20.02 34.03c-1.65 0-2.99 1.34-2.99 2.98S18.37 40 20.02 40c1.65 0 2.99-1.34 2.99-2.98s-1.34-2.99-2.99-2.99zm11.99-22.98c1.66 0 3-1.34 3-3s-1.35-3-3-3c-1.66 0-3 1.34-3 3a2.99 2.99 0 0 0 3 3zM32 28.99c-1.66 0-3.01 1.35-3.01 3.01s1.35 3.01 3.01 3.01 3.01-1.35 3.01-3.01-1.35-3.01-3.01-3.01z"/></svg><svg viewBox="-2 -2 44 44" width="44" height="44" id="spinner_70" x="364" xmlns="http://www.w3.org/2000/svg"><path fill-rule="evenodd" clip-rule="evenodd" fill="#858585" d="M20.01 0C18.35 0 17 1.35 17 3.01c0 1.66 1.35 3.01 3.02 3.01s3.02-1.35 3.02-3.01A3.03 3.03 0 0 0 20.01 0zm17 17.01a2.99 2.99 0 0 0-2.99 2.98c0 1.65 1.34 2.98 2.99 2.98A2.99 2.99 0 0 0 40 19.99a2.99 2.99 0 0 0-2.99-2.98zM20.02 34.03c-1.65 0-2.99 1.34-2.99 2.98S18.37 40 20.02 40c1.65 0 2.99-1.34 2.99-2.98s-1.34-2.99-2.99-2.99zm11.99-22.98c1.66 0 3-1.34 3-3s-1.35-3-3-3c-1.66 0-3 1.34-3 3a2.99 2.99 0 0 0 3 3zm-23.98 18c-1.67 0-3.02 1.35-3.02 3.01s1.35 3.01 3.02 3.01 3.02-1.35 3.02-3.01-1.35-3.01-3.02-3.01zM32 28.99c-1.66 0-3.01 1.35-3.01 3.01s1.35 3.01 3.01 3.01 3.01-1.35 3.01-3.01-1.35-3.01-3.01-3.01z"/></svg><svg viewBox="-2 -2 44 44" width="44" height="44" id="spinner_80" x="408" xmlns="http://www.w3.org/2000/svg"><path fill-rule="evenodd" clip-rule="evenodd" fill="#858585" d="M20.01 0C18.35 0 17 1.35 17 3.01c0 1.66 1.35 3.01 3.02 3.01s3.02-1.35 3.02-3.01A3.03 3.03 0 0 0 20.01 0zm17 17.01a2.99 2.99 0 0 0-2.99 2.98c0 1.65 1.34 2.98 2.99 2.98A2.99 2.99 0 0 0 40 19.99a2.99 2.99 0 0 0-2.99-2.98zM5.99 20.02c0-1.65-1.34-2.99-3-2.99s-3 1.34-3 2.99c0 1.65 1.34 2.99 3 2.99s3-1.34 3-2.99zm14.03 14.01c-1.65 0-2.99 1.34-2.99 2.98S18.37 40 20.02 40c1.65 0 2.99-1.34 2.99-2.98s-1.34-2.99-2.99-2.99zm11.99-22.98c1.66 0 3-1.34 3-3s-1.35-3-3-3c-1.66 0-3 1.34-3 3a2.99 2.99 0 0 0 3 3zm-23.98 18c-1.67 0-3.02 1.35-3.02 3.01s1.35 3.01 3.02 3.01 3.02-1.35 3.02-3.01-1.35-3.01-3.02-3.01zM32 28.99c-1.66 0-3.01 1.35-3.01 3.01s1.35 3.01 3.01 3.01 3.01-1.35 3.01-3.01-1.35-3.01-3.01-3.01z"/></svg><svg viewBox="-2 -2 44 44" width="44" height="44" id="spinner_90" x="452" xmlns="http://www.w3.org/2000/svg"><path fill-rule="evenodd" clip-rule="evenodd" fill="#858585" d="M20.01 0C18.35 0 17 1.35 17 3.01c0 1.66 1.35 3.01 3.02 3.01s3.02-1.35 3.02-3.01A3.03 3.03 0 0 0 20.01 0zm17 17.01a2.99 2.99 0 0 0-2.99 2.98c0 1.65 1.34 2.98 2.99 2.98A2.99 2.99 0 0 0 40 19.99a2.99 2.99 0 0 0-2.99-2.98zM5.99 20.02c0-1.65-1.34-2.99-3-2.99s-3 1.34-3 2.99c0 1.65 1.34 2.99 3 2.99s3-1.34 3-2.99zm14.03 14.01c-1.65 0-2.99 1.34-2.99 2.98S18.37 40 20.02 40c1.65 0 2.99-1.34 2.99-2.98s-1.34-2.99-2.99-2.99zm11.99-22.98c1.66 0 3-1.34 3-3s-1.35-3-3-3c-1.66 0-3 1.34-3 3a2.99 2.99 0 0 0 3 3zm-24.05-.06c1.65 0 2.99-1.34 2.99-2.99a2.994 2.994 0 1 0-5.99-.01c0 1.66 1.34 3 3 3zm.07 18.06c-1.67 0-3.02 1.35-3.02 3.01s1.35 3.01 3.02 3.01 3.02-1.35 3.02-3.01-1.35-3.01-3.02-3.01zM32 28.99c-1.66 0-3.01 1.35-3.01 3.01s1.35 3.01 3.01 3.01 3.01-1.35 3.01-3.01-1.35-3.01-3.01-3.01z"/></svg></svg>