<?xml version="1.0" encoding="utf-8"?><svg width="280" height="26" viewBox="0 0 280 26" xmlns="http://www.w3.org/2000/svg" xmlns:xlink="http://www.w3.org/1999/xlink"><svg viewBox="-1 -1 26 26" width="26" height="26" id="cbsingle_dis_selected" xmlns="http://www.w3.org/2000/svg"><path opacity=".5" fill-rule="evenodd" clip-rule="evenodd" fill="#5A5A5A" d="M23 12c0 6.08-4.92 11-11 11S1 18.08 1 12 5.92 1 12 1s11 4.92 11 11zM9.57 15.01l-2.66-3.26-.91.95L9.7 17 18 8.05 16.97 7l-7.4 8.01z"/><path opacity=".5" fill-rule="evenodd" clip-rule="evenodd" fill="#FFF" d="M16.97 7L18 8.05 9.7 17 6 12.7l.91-.96L9.57 15l7.4-8z"/></svg><svg viewBox="-2 0 26 26" width="26" height="26" id="cbsingle_dis_unselected" x="26" xmlns="http://www.w3.org/2000/svg"><circle opacity=".5" fill="#FFF" cx="11" cy="13" r="11"/><path opacity=".5" fill="#5A5A5A" d="M22 13c0 6.08-4.92 11-11 11S0 19.08 0 13 4.92 2 11 2s11 4.92 11 11zM10.96 3c-5.52 0-10 4.48-10 10s4.48 10 10 10 10-4.48 10-10-4.48-10-10-10z"/></svg><svg viewBox="-2 -2 26 26" width="26" height="26" id="cbsingle_ena_selected" x="52" xmlns="http://www.w3.org/2000/svg"><path fill-rule="evenodd" clip-rule="evenodd" fill="#4BAA02" d="M11 0c6.08 0 11 4.92 11 11 0 6.07-4.92 11-11 11S0 17.08 0 11 4.92 0 11 0z"/><path fill-rule="evenodd" clip-rule="evenodd" fill="#FFF" d="M15.97 6L17 7.05 8.7 16 5 11.7l.91-.96L8.57 14l7.4-8z"/></svg><svg viewBox="-1 -1 26 26" width="26" height="26" id="cbsingle_ena_unselected" x="78" xmlns="http://www.w3.org/2000/svg"><circle opacity=".9" fill="#FFF" cx="12" cy="12" r="11"/><path fill="#4BAA02" d="M23 12c0 6.08-4.92 11-11 11S1 18.08 1 12 5.92 1 12 1s11 4.92 11 11zM11.96 2c-5.52 0-10 4.48-10 10s4.48 10 10 10 10-4.48 10-10-4.48-10-10-10z"/></svg><svg viewBox="-1 -1 26 26" width="26" height="26" id="cbsingle_hover_selected" x="104" xmlns="http://www.w3.org/2000/svg"><path fill-rule="evenodd" clip-rule="evenodd" fill="#4BAA02" d="M23 12c0 6.08-4.92 11-11 11S1 18.08 1 12 5.92 1 12 1s11 4.92 11 11zM9.57 15.01l-2.66-3.26-.91.95L9.7 17 18 8.05 16.97 7l-7.4 8.01z"/><path opacity=".5" fill-rule="evenodd" clip-rule="evenodd" fill="#FFF" d="M16.97 7L18 8.05 9.7 17 6 12.7l.91-.96L9.57 15l7.4-8z"/></svg><svg viewBox="-2 0 26 26" width="26" height="26" id="cbsingle_hover_unselected" x="130" xmlns="http://www.w3.org/2000/svg"><circle opacity=".5" fill="#FFF" cx="11" cy="13" r="11"/><path fill="#4BAA02" d="M22 13c0 6.08-4.92 11-11 11S0 19.08 0 13 4.92 2 11 2s11 4.92 11 11zM10.96 3c-5.52 0-10 4.48-10 10s4.48 10 10 10 10-4.48 10-10-4.48-10-10-10z"/></svg><svg viewBox="-1 -1 26 26" width="26" height="26" id="cbsingle_pressed_selected" x="156" xmlns="http://www.w3.org/2000/svg"><circle opacity=".15" fill="#4BAA02" cx="12" cy="12" r="11"/><g fill="#4BAA02"><path d="M23 12c0 6.08-4.92 11-11 11S1 18.08 1 12 5.92 1 12 1s11 4.92 11 11zM11.96 2c-5.52 0-10 4.48-10 10s4.48 10 10 10 10-4.48 10-10-4.48-10-10-10z"/><path fill-rule="evenodd" clip-rule="evenodd" d="M16.97 7L18 8.05 9.7 17 6 12.7l.91-.96L9.57 15l7.4-8z"/></g></svg><svg viewBox="-1 -1 26 26" width="26" height="26" id="cbsingle_pressed_unselected" x="182" xmlns="http://www.w3.org/2000/svg"><circle opacity=".15" fill="#4BAA02" cx="12" cy="12" r="11"/><path fill="#4BAA02" d="M23 12c0 6.08-4.92 11-11 11S1 18.08 1 12 5.92 1 12 1s11 4.92 11 11zM11.96 2c-5.52 0-10 4.48-10 10s4.48 10 10 10 10-4.48 10-10-4.48-10-10-10z"/></svg><svg opacity=".5" viewBox="-2 -2 18 17" width="18" height="17" id="checkbox_dis_selected" x="208" xmlns="http://www.w3.org/2000/svg"><path fill="#4BAA02" d="M5.69 8.61l-3.8-3.3L.04 7.45l5.95 5.51 7.72-11.3L11.28.05z"/></svg><svg viewBox="-2 -2 18 17" width="18" height="17" id="checkbox_ena_selected" x="226" xmlns="http://www.w3.org/2000/svg"><path fill="#4BAA02" d="M5.69 8.61l-3.8-3.3L.04 7.45l5.95 5.51 7.72-11.3L11.28.05z"/></svg><svg opacity=".5" viewBox="-2 -2 18 17" width="18" height="17" id="radio_dis_selected" x="244" xmlns="http://www.w3.org/2000/svg"><path fill="#4BAA02" d="M5.69 8.61l-3.8-3.3L.04 7.45l5.95 5.51 7.72-11.3L11.28.05z"/></svg><svg viewBox="-2 -2 18 17" width="18" height="17" id="radio_ena_selected" x="262" xmlns="http://www.w3.org/2000/svg"><path fill="#4BAA02" d="M5.69 8.61l-3.8-3.3L.04 7.45l5.95 5.51 7.72-11.3L11.28.05z"/></svg></svg>